<svg xmlns="http://www.w3.org/2000/svg" width="840" height="1040" viewBox="0 0 840 1040" role="img" aria-label="Generated abstract authentication key plate">
  <rect width="840" height="1040" rx="34" fill="#11110f"/>
  <rect x="42" y="42" width="756" height="956" rx="22" fill="none" stroke="#ede6d9" stroke-opacity="0.3" stroke-width="1.1"/>
  <g fill="none" stroke="#ede6d9" stroke-opacity="0.19" stroke-width="1">
    <path d="M96 190H744"/>
    <path d="M96 342H744"/>
    <path d="M96 494H744"/>
    <path d="M96 646H744"/>
    <path d="M96 798H744"/>
    <path d="M188 96V944"/>
    <path d="M344 96V944"/>
    <path d="M500 96V944"/>
    <path d="M656 96V944"/>
  </g>
  <circle cx="420" cy="494" r="132" fill="none" stroke="#ede6d9" stroke-opacity="0.72" stroke-width="1.6"/>
  <circle cx="420" cy="494" r="78" fill="none" stroke="#ede6d9" stroke-opacity="0.34" stroke-width="1"/>
  <path d="M420 362V254" stroke="#ede6d9" stroke-opacity="0.66" stroke-width="1.6"/>
  <path d="M420 626V794" stroke="#ede6d9" stroke-opacity="0.66" stroke-width="1.6"/>
  <path d="M288 494H162" stroke="#ede6d9" stroke-opacity="0.66" stroke-width="1.6"/>
  <path d="M552 494H692" stroke="#ede6d9" stroke-opacity="0.66" stroke-width="1.6"/>
  <g fill="#ede6d9">
    <circle cx="420" cy="254" r="7"/>
    <circle cx="420" cy="794" r="7" opacity="0.7"/>
    <circle cx="162" cy="494" r="7" opacity="0.7"/>
    <circle cx="692" cy="494" r="7"/>
    <circle cx="420" cy="494" r="11"/>
  </g>
  <g font-family="ui-monospace, SFMono-Regular, Menlo, Consolas, monospace" fill="#ede6d9">
    <text x="96" y="132" font-size="18" letter-spacing="4">ACCESS LAYER</text>
    <text x="96" y="902" font-size="16" letter-spacing="3" opacity="0.58">TOKEN · QUOTA · OBSERVE</text>
    <text x="744" y="132" text-anchor="end" font-size="16" letter-spacing="3" opacity="0.72">KEY READY</text>
  </g>
  <g opacity="0.2" fill="#ede6d9">
    <rect x="262" y="876" width="316" height="1"/>
    <rect x="300" y="906" width="240" height="1"/>
    <rect x="336" y="936" width="168" height="1"/>
  </g>
</svg>
