<svg xmlns="http://www.w3.org/2000/svg" width="1200" height="820" viewBox="0 0 1200 820" role="img" aria-label="Generated abstract API gateway signal plate">
  <rect width="1200" height="820" rx="38" fill="#10100f"/>
  <rect x="44" y="44" width="1112" height="732" rx="24" fill="none" stroke="#e7e0d3" stroke-opacity="0.32" stroke-width="1.2"/>
  <g fill="none" stroke="#e7e0d3" stroke-opacity="0.22" stroke-width="1">
    <path d="M118 162H1082"/>
    <path d="M118 272H1082"/>
    <path d="M118 382H1082"/>
    <path d="M118 492H1082"/>
    <path d="M118 602H1082"/>
    <path d="M250 108V706"/>
    <path d="M430 108V706"/>
    <path d="M610 108V706"/>
    <path d="M790 108V706"/>
    <path d="M970 108V706"/>
  </g>
  <g fill="#e7e0d3">
    <circle cx="250" cy="272" r="8"/>
    <circle cx="430" cy="162" r="8" opacity="0.68"/>
    <circle cx="610" cy="492" r="8" opacity="0.84"/>
    <circle cx="790" cy="382" r="8" opacity="0.58"/>
    <circle cx="970" cy="602" r="8" opacity="0.72"/>
  </g>
  <g fill="none" stroke="#e7e0d3" stroke-width="2" stroke-linecap="round" stroke-linejoin="round">
    <path d="M250 272C322 272 350 162 430 162S524 492 610 492 706 382 790 382 882 602 970 602"/>
    <path d="M250 492C348 492 340 382 430 382S520 272 610 272 696 162 790 162 884 272 970 272" opacity="0.34"/>
  </g>
  <g font-family="ui-monospace, SFMono-Regular, Menlo, Consolas, monospace" fill="#e7e0d3">
    <text x="84" y="116" font-size="21" letter-spacing="4">SUB2API / ROUTING MATRIX</text>
    <text x="84" y="722" font-size="18" letter-spacing="3" opacity="0.56">OPENAI · ANTHROPIC · GEMINI · GROK · QWEN</text>
    <text x="982" y="116" font-size="18" text-anchor="end" letter-spacing="3" opacity="0.74">LATENCY 01.3S</text>
  </g>
  <g opacity="0.18" stroke="#e7e0d3" stroke-width="1">
    <path d="M84 666H1116"/>
    <path d="M1116 666L1078 640"/>
    <path d="M1116 666L1078 692"/>
  </g>
</svg>
